Coordinates
version=1
nRows=14
nColumns=24
inDegrees=yes

Units are S.I. units (second, meters, Newtons, ...)
Angles are in degrees.

endheader
time	pelvis_tilt	pelvis_list	pelvis_rotation	pelvis_tx	pelvis_ty	pelvis_tz	hip_flexion_r	hip_adduction_r	hip_rotation_r	knee_angle_r	ankle_angle_r	subtalar_angle_r	mtp_angle_r	hip_flexion_l	hip_adduction_l	hip_rotation_l	knee_angle_l	ankle_angle_l	subtalar_angle_l	mtp_angle_l	lumbar_extension	lumbar_bending	lumbar_rotation
      5.69000000	      1.57211577	      2.40786892	      0.70231512	     -1.13305068	      0.95952665	      0.21830428	     24.79435658	     -4.74997750	     -8.31833775	    -38.19049974	      3.34419298	    -13.10816464	      0.00000000	     -4.49079078	      8.29600806	      3.53023841	     -9.00113917	     13.24581198	    -13.96769017	      0.00000000	    -26.86092435	     -3.08120188	     -9.70885721
      5.70000000	      1.67407283	      2.65939111	      1.05101378	     -1.12097140	      0.95871289	      0.21813464	     24.62034648	     -4.96182469	     -9.09963031	    -34.41867249	      3.85872151	    -11.24457326	      0.00000000	     -5.87553902	      8.49836219	      3.69644657	     -8.12209048	     13.29719363	    -13.98063691	      0.00000000	    -27.02836421	     -3.17309094	    -10.19428232
      5.71000000	      1.82494995	      2.94839626	      1.40200491	     -1.10869949	      0.95771512	      0.21805911	     24.31743703	     -5.16990770	     -9.86555954	    -30.61711848	      4.41761637	     -8.87717225	      0.00000000	     -7.33550114	      8.71291731	      3.86536670	     -7.24518260	     13.35838267	    -13.93344697	      0.00000000	    -27.22610921	     -3.31199001	    -10.70150819
      5.72000000	      2.08257288	      3.20425165	      1.74414390	     -1.09616401	      0.95665170	      0.21807896	     23.81160446	     -5.29849345	    -10.65098692	    -26.79151513	      4.92878714	     -6.16605354	      0.00000000	     -8.94069191	      8.85829822	      4.10822886	     -6.36425740	     13.43485927	    -13.85590096	      0.00000000	    -27.50663442	     -3.41041421	    -11.15395499
      5.73000000	      2.18343591	      3.60593043	      2.04957188	     -1.08366555	      0.95511166	      0.21824847	     23.49479531	     -5.52972909	    -11.24825419	    -23.13314937	      5.49673874	     -3.12454635	      0.00000000	    -10.29128909	      9.14597007	      4.17265767	     -5.66375473	     13.55371727	    -13.58370214	      0.00000000	    -27.62114077	     -3.70559464	    -11.68144135
      5.74000000	      2.39216531	      3.92828740	      2.36812117	     -1.07096813	      0.95359986	      0.21845829	     22.98606296	     -5.65295980	    -11.86167296	    -19.52623142	      5.91142325	     -0.08485033	      0.00000000	    -11.73800714	      9.31340607	      4.34939707	     -5.04181146	     13.70738061	    -13.29445314	      0.00000000	    -27.83732805	     -3.89388574	    -12.17841774
      5.75000000	      2.63530554	      4.21160833	      2.66437442	     -1.05816925	      0.95201950	      0.21879163	     22.40429419	     -5.69450568	    -12.38065518	    -16.04975088	      6.16993411	      2.76127849	      0.00000000	    -13.16293960	      9.40759357	      4.61835304	     -4.55765789	     13.92944535	    -12.94172521	      0.00000000	    -28.08470974	     -4.04947078	    -12.64069293
      5.76000000	      2.79865214	      4.50594952	      2.93702674	     -1.04526571	      0.95024174	      0.21921186	     21.88935641	     -5.71828919	    -12.77154087	    -12.77813500	      6.39278930	      5.30004029	      0.00000000	    -14.39309459	      9.50823849	      4.78408470	     -4.28975082	     14.15947746	    -12.55930204	      0.00000000	    -28.22224930	     -4.23052638	    -13.06334759
      5.77000000	      2.94596062	      4.83647486	      3.20445174	     -1.03243512	      0.94839095	      0.21971929	     21.39786125	     -5.76459292	    -12.97511101	     -9.79644253	      6.54455012	      7.41651415	      0.00000000	    -15.48634099	      9.62128178	      5.08386026	     -4.26484539	     14.47456594	    -12.08425908	      0.00000000	    -28.37440767	     -4.46272775	    -13.47448322
      5.78000000	      3.14906487	      5.04942111	      3.52354918	     -1.01938748	      0.94668402	      0.22024855	     20.78325734	     -5.68706866	    -13.10205385	     -7.06671932	      6.55220949	      8.91769368	      0.00000000	    -16.55068513	      9.57481497	      5.37732881	     -4.41219570	     14.79455293	    -11.60518160	      0.00000000	    -28.56896605	     -4.53823238	    -13.97727674
      5.79000000	      3.35367844	      5.25465836	      3.80831565	     -1.00624899	      0.94498484	      0.22074383	     20.20324692	     -5.61209293	    -13.04231491	     -4.79188808	      6.60655183	      9.96020932	      0.00000000	    -17.49432821	      9.52687596	      5.64508205	     -4.79932439	     15.12259091	    -11.11584075	      0.00000000	    -28.74042194	     -4.58503757	    -14.38206654
      5.80000000	      3.54214710	      5.43890657	      4.10357788	     -0.99305024	      0.94334647	      0.22123745	     19.69962521	     -5.54740829	    -12.90913896	     -3.06354859	      6.70271794	     10.61076347	      0.00000000	    -18.30626198	      9.44630035	      5.92062253	     -5.40213204	     15.42809710	    -10.59416526	      0.00000000	    -28.90178214	     -4.60459792	    -14.80495102
      5.81000000	      3.76040442	      5.56962326	      4.39066852	     -0.97972088	      0.94184660	      0.22169129	     19.24293704	     -5.46206806	    -12.78878975	     -1.94890805	      6.89937823	     11.02297728	      0.00000000	    -19.04533245	      9.30770157	      6.15501544	     -6.19994253	     15.68491910	    -10.05020816	      0.00000000	    -29.08135123	     -4.54697132	    -15.20067409
      5.82000000	      3.91707463	      5.72109554	      4.63857627	     -0.96634779	      0.94033720	      0.22214261	     18.97472654	     -5.43219133	    -12.61191690	     -1.51491875	      7.24271325	     11.24058706	      0.00000000	    -19.61376753	      9.21403597	      6.40212490	     -7.19203174	     15.81757789	     -9.60059555	      0.00000000	    -29.19285140	     -4.52730524	    -15.55038897
